<svg width="40" height="40" viewBox="0 0 40 40" fill="none" xmlns="http://www.w3.org/2000/svg">
  <g transform="translate(5 5)">
    <path d="M28.699 24.885L25.906 22.657C27.235 20.518 28.005 17.996 28.005 15.295C28.005 7.577 21.727 1.299 14.009 1.299C6.29 1.299 0.404 7.192 0.029 14.577L1.006 14.599C1.117 14.44 1.492 14.28 2.178 13.969C2.413 13.876 2.598 13.691 2.691 13.458C3.023 12.628 3.13 12.284 3.316 12.284C3.53 12.284 3.636 12.713 3.967 13.468C4.063 13.696 4.243 13.876 4.472 13.969C5.277 14.294 5.638 14.412 5.646 14.599C5.646 14.643 5.629 14.676 5.61 14.699L6.504 14.718C6.801 10.84 10.051 7.779 14.001 7.779C18.147 7.779 21.523 11.152 21.523 15.3C21.523 19.448 18.149 22.821 14.001 22.821C10.861 22.821 8.166 20.886 7.041 18.148L0.58 19.274C2.296 25.063 7.664 29.299 14.004 29.299C17.272 29.299 20.282 28.17 22.666 26.285L25.576 28.607C26.602 29.468 28.133 29.334 28.994 28.308C29.854 27.281 29.721 25.75 28.694 24.889L28.699 24.885Z" fill="#0056F5"/>
    <path d="M6.51 14.713C6.533 14.361 6.583 14.016 6.657 13.679H4.099C4.197 13.807 4.325 13.909 4.479 13.971C5.288 14.298 5.646 14.417 5.654 14.601C5.654 14.645 5.637 14.678 5.625 14.694C5.506 14.876 5.106 15.046 4.491 15.255C4.251 15.355 4.071 15.535 3.978 15.766C3.631 16.639 3.525 16.946 3.35 16.95C3.134 16.95 3.026 16.518 2.691 15.759C2.599 15.533 2.421 15.352 2.195 15.26C1.368 14.915 1.001 14.795 1.006 14.587C1.016 14.407 1.359 14.254 2.181 13.974C2.335 13.912 2.464 13.81 2.564 13.681H0.108C0.058 14.164 -0.037 14.91 0.015 16.013C0.098 17.813 1.475 19.274 3.277 19.274C5.078 19.274 6.574 17.889 6.521 16.037C6.517 15.861 6.455 15.571 6.512 14.713H6.51Z" fill="#0056F5"/>
  </g>
</svg>
